<mxfile host="app.diagrams.net" agent="Mozilla/5.0 (Windows NT 10.0; Win64; x64) AppleWebKit/537.36 (KHTML, like Gecko) Chrome/131.0.0.0 Safari/537.36" version="25.0.1">
  <diagram id="C5RBs43oDa-KdzZeNtuy" name="Page-1">
    <mxGraphModel dx="2327" dy="861" grid="1" gridSize="10" guides="1" tooltips="1" connect="1" arrows="1" fold="1" page="1" pageScale="1" pageWidth="827" pageHeight="1169" math="0" shadow="0">
      <root>
        <mxCell id="WIyWlLk6GJQsqaUBKTNV-0" />
        <mxCell id="WIyWlLk6GJQsqaUBKTNV-1" parent="WIyWlLk6GJQsqaUBKTNV-0" />
        <mxCell id="LhpZ7O40vheFqG1p9xwE-2" style="edgeStyle=orthogonalEdgeStyle;rounded=0;orthogonalLoop=1;jettySize=auto;html=1;entryX=0.5;entryY=0;entryDx=0;entryDy=0;" edge="1" parent="WIyWlLk6GJQsqaUBKTNV-1" source="LhpZ7O40vheFqG1p9xwE-0" target="LhpZ7O40vheFqG1p9xwE-1">
          <mxGeometry relative="1" as="geometry" />
        </mxCell>
        <mxCell id="LhpZ7O40vheFqG1p9xwE-0" value="Start" style="ellipse;whiteSpace=wrap;html=1;" vertex="1" parent="WIyWlLk6GJQsqaUBKTNV-1">
          <mxGeometry x="180" y="50" width="120" height="60" as="geometry" />
        </mxCell>
        <mxCell id="LhpZ7O40vheFqG1p9xwE-4" style="edgeStyle=orthogonalEdgeStyle;rounded=0;orthogonalLoop=1;jettySize=auto;html=1;exitX=0.5;exitY=1;exitDx=0;exitDy=0;entryX=0.5;entryY=0;entryDx=0;entryDy=0;" edge="1" parent="WIyWlLk6GJQsqaUBKTNV-1" source="LhpZ7O40vheFqG1p9xwE-1" target="LhpZ7O40vheFqG1p9xwE-3">
          <mxGeometry relative="1" as="geometry" />
        </mxCell>
        <mxCell id="LhpZ7O40vheFqG1p9xwE-1" value="Generate Random Number" style="rounded=0;whiteSpace=wrap;html=1;" vertex="1" parent="WIyWlLk6GJQsqaUBKTNV-1">
          <mxGeometry x="180" y="150" width="120" height="60" as="geometry" />
        </mxCell>
        <mxCell id="LhpZ7O40vheFqG1p9xwE-6" value="" style="edgeStyle=orthogonalEdgeStyle;rounded=0;orthogonalLoop=1;jettySize=auto;html=1;" edge="1" parent="WIyWlLk6GJQsqaUBKTNV-1" source="LhpZ7O40vheFqG1p9xwE-3" target="LhpZ7O40vheFqG1p9xwE-5">
          <mxGeometry relative="1" as="geometry" />
        </mxCell>
        <mxCell id="LhpZ7O40vheFqG1p9xwE-3" value="Prompt User to Guess" style="rounded=0;whiteSpace=wrap;html=1;" vertex="1" parent="WIyWlLk6GJQsqaUBKTNV-1">
          <mxGeometry x="165" y="254" width="150" height="96" as="geometry" />
        </mxCell>
        <mxCell id="LhpZ7O40vheFqG1p9xwE-14" value="" style="edgeStyle=orthogonalEdgeStyle;rounded=0;orthogonalLoop=1;jettySize=auto;html=1;" edge="1" parent="WIyWlLk6GJQsqaUBKTNV-1">
          <mxGeometry relative="1" as="geometry">
            <mxPoint x="165" y="448.29" as="sourcePoint" />
            <mxPoint x="70" y="448.29" as="targetPoint" />
          </mxGeometry>
        </mxCell>
        <mxCell id="LhpZ7O40vheFqG1p9xwE-16" value="" style="edgeStyle=orthogonalEdgeStyle;rounded=0;orthogonalLoop=1;jettySize=auto;html=1;" edge="1" parent="WIyWlLk6GJQsqaUBKTNV-1" source="LhpZ7O40vheFqG1p9xwE-5" target="LhpZ7O40vheFqG1p9xwE-15">
          <mxGeometry relative="1" as="geometry" />
        </mxCell>
        <mxCell id="LhpZ7O40vheFqG1p9xwE-5" value="Compare Guess with Random Number" style="rhombus;whiteSpace=wrap;html=1;rounded=0;" vertex="1" parent="WIyWlLk6GJQsqaUBKTNV-1">
          <mxGeometry x="165" y="370" width="150" height="160" as="geometry" />
        </mxCell>
        <mxCell id="LhpZ7O40vheFqG1p9xwE-24" style="edgeStyle=orthogonalEdgeStyle;rounded=0;orthogonalLoop=1;jettySize=auto;html=1;exitX=0.5;exitY=1;exitDx=0;exitDy=0;entryX=0;entryY=0.5;entryDx=0;entryDy=0;" edge="1" parent="WIyWlLk6GJQsqaUBKTNV-1" source="LhpZ7O40vheFqG1p9xwE-13" target="LhpZ7O40vheFqG1p9xwE-23">
          <mxGeometry relative="1" as="geometry" />
        </mxCell>
        <mxCell id="LhpZ7O40vheFqG1p9xwE-13" value="&quot;Display Congratulations!&quot;" style="whiteSpace=wrap;html=1;rounded=0;" vertex="1" parent="WIyWlLk6GJQsqaUBKTNV-1">
          <mxGeometry x="-50" y="420" width="120" height="60" as="geometry" />
        </mxCell>
        <mxCell id="LhpZ7O40vheFqG1p9xwE-18" value="" style="edgeStyle=orthogonalEdgeStyle;rounded=0;orthogonalLoop=1;jettySize=auto;html=1;" edge="1" parent="WIyWlLk6GJQsqaUBKTNV-1" source="LhpZ7O40vheFqG1p9xwE-15" target="LhpZ7O40vheFqG1p9xwE-17">
          <mxGeometry relative="1" as="geometry" />
        </mxCell>
        <mxCell id="LhpZ7O40vheFqG1p9xwE-20" value="" style="edgeStyle=orthogonalEdgeStyle;rounded=0;orthogonalLoop=1;jettySize=auto;html=1;" edge="1" parent="WIyWlLk6GJQsqaUBKTNV-1" source="LhpZ7O40vheFqG1p9xwE-15" target="LhpZ7O40vheFqG1p9xwE-19">
          <mxGeometry relative="1" as="geometry" />
        </mxCell>
        <mxCell id="LhpZ7O40vheFqG1p9xwE-15" value="Compare Guess with Random Number" style="rhombus;whiteSpace=wrap;html=1;rounded=0;" vertex="1" parent="WIyWlLk6GJQsqaUBKTNV-1">
          <mxGeometry x="330" y="540" width="150" height="160" as="geometry" />
        </mxCell>
        <mxCell id="LhpZ7O40vheFqG1p9xwE-22" style="edgeStyle=orthogonalEdgeStyle;rounded=0;orthogonalLoop=1;jettySize=auto;html=1;exitX=0.5;exitY=0;exitDx=0;exitDy=0;entryX=0.75;entryY=0;entryDx=0;entryDy=0;" edge="1" parent="WIyWlLk6GJQsqaUBKTNV-1" source="LhpZ7O40vheFqG1p9xwE-17" target="LhpZ7O40vheFqG1p9xwE-3">
          <mxGeometry relative="1" as="geometry" />
        </mxCell>
        <mxCell id="LhpZ7O40vheFqG1p9xwE-17" value="&quot;Display Too High&quot; " style="whiteSpace=wrap;html=1;rounded=0;" vertex="1" parent="WIyWlLk6GJQsqaUBKTNV-1">
          <mxGeometry x="575" y="590" width="120" height="60" as="geometry" />
        </mxCell>
        <mxCell id="LhpZ7O40vheFqG1p9xwE-21" style="edgeStyle=orthogonalEdgeStyle;rounded=0;orthogonalLoop=1;jettySize=auto;html=1;entryX=1;entryY=0.5;entryDx=0;entryDy=0;exitX=0.5;exitY=1;exitDx=0;exitDy=0;" edge="1" parent="WIyWlLk6GJQsqaUBKTNV-1" source="LhpZ7O40vheFqG1p9xwE-19" target="LhpZ7O40vheFqG1p9xwE-3">
          <mxGeometry relative="1" as="geometry">
            <Array as="points">
              <mxPoint x="175" y="720" />
              <mxPoint x="710" y="720" />
              <mxPoint x="710" y="302" />
            </Array>
          </mxGeometry>
        </mxCell>
        <mxCell id="LhpZ7O40vheFqG1p9xwE-19" value="&#xa;&quot;Display Too Low&quot; &#xa;&#xa;" style="whiteSpace=wrap;html=1;rounded=0;" vertex="1" parent="WIyWlLk6GJQsqaUBKTNV-1">
          <mxGeometry x="115" y="590" width="120" height="60" as="geometry" />
        </mxCell>
        <mxCell id="LhpZ7O40vheFqG1p9xwE-23" value="End" style="ellipse;whiteSpace=wrap;html=1;" vertex="1" parent="WIyWlLk6GJQsqaUBKTNV-1">
          <mxGeometry x="160" y="760" width="120" height="80" as="geometry" />
        </mxCell>
        <mxCell id="LhpZ7O40vheFqG1p9xwE-25" value="Yes" style="text;html=1;align=center;verticalAlign=middle;resizable=0;points=[];autosize=1;strokeColor=none;fillColor=none;" vertex="1" parent="WIyWlLk6GJQsqaUBKTNV-1">
          <mxGeometry x="110" y="408" width="40" height="30" as="geometry" />
        </mxCell>
        <mxCell id="LhpZ7O40vheFqG1p9xwE-26" value="NO" style="text;html=1;align=center;verticalAlign=middle;resizable=0;points=[];autosize=1;strokeColor=none;fillColor=none;" vertex="1" parent="WIyWlLk6GJQsqaUBKTNV-1">
          <mxGeometry x="330" y="408" width="40" height="30" as="geometry" />
        </mxCell>
        <mxCell id="LhpZ7O40vheFqG1p9xwE-27" value="if lower than number&lt;div&gt;&lt;br&gt;&lt;/div&gt;" style="text;html=1;align=center;verticalAlign=middle;resizable=0;points=[];autosize=1;strokeColor=none;fillColor=none;" vertex="1" parent="WIyWlLk6GJQsqaUBKTNV-1">
          <mxGeometry x="235" y="573" width="130" height="40" as="geometry" />
        </mxCell>
        <mxCell id="LhpZ7O40vheFqG1p9xwE-28" value="If higher than number&lt;div&gt;&lt;br&gt;&lt;/div&gt;" style="text;html=1;align=center;verticalAlign=middle;resizable=0;points=[];autosize=1;strokeColor=none;fillColor=none;" vertex="1" parent="WIyWlLk6GJQsqaUBKTNV-1">
          <mxGeometry x="460" y="573" width="140" height="40" as="geometry" />
        </mxCell>
      </root>
    </mxGraphModel>
  </diagram>
</mxfile>
